<?xml version="1.0" standalone="no"?>
<!DOCTYPE svg PUBLIC "-//W3C//DTD SVG 20010904//EN"
 "http://www.w3.org/TR/2001/REC-SVG-20010904/DTD/svg10.dtd">
<svg version="1.0" xmlns="http://www.w3.org/2000/svg"
 width="521.000000pt" height="521.000000pt" viewBox="0 0 521.000000 521.000000"
 preserveAspectRatio="xMidYMid meet">
<metadata>
Created by potrace 1.14, written by Peter Selinger 2001-2017
</metadata>
<g transform="translate(0.000000,521.000000) scale(0.100000,-0.100000)"
fill="#000000" stroke="none">
<path d="M1475 3465 c-38 -9 -108 -34 -155 -57 -68 -33 -102 -58 -171 -127
-118 -118 -174 -233 -194 -403 l-7 -58 71 0 c69 0 71 1 77 28 34 150 70 218
169 317 130 130 263 181 445 172 113 -5 194 -31 285 -88 122 -77 227 -222 261
-361 l12 -53 1 40 c2 105 -74 283 -164 382 -158 174 -405 256 -630 208z"/>
<path d="M170 2485 l0 -485 80 0 80 0 2 185 3 184 186 -184 186 -185 101 0
c111 0 126 9 77 48 -14 11 -118 109 -230 217 -112 109 -212 203 -222 211 -17
13 -15 16 22 51 322 299 438 409 446 425 9 17 4 18 -93 18 l-103 -1 -185 -175
-185 -175 -3 176 -2 175 -80 0 -80 0 0 -485z"/>
<path d="M947 2753 c-4 -3 -7 -39 -7 -80 l0 -73 295 0 295 0 0 -70 0 -70 -230
0 c-261 0 -288 -6 -330 -67 -22 -33 -25 -48 -28 -150 -4 -136 13 -185 77 -221
38 -21 48 -22 355 -22 l316 0 0 328 c0 310 -1 329 -20 360 -12 19 -38 41 -63
52 -38 18 -68 20 -348 20 -168 0 -309 -3 -312 -7z m583 -523 l0 -70 -215 0
-215 0 0 70 0 70 215 0 215 0 0 -70z"/>
<path d="M1915 2746 c-37 -16 -70 -52 -84 -89 -16 -42 -14 -231 3 -270 7 -18
26 -43 40 -57 28 -25 28 -25 257 -28 l229 -3 0 -70 0 -69 -265 0 -265 0 0 -80
0 -80 288 0 c321 0 335 3 379 69 21 31 23 46 23 161 0 115 -2 130 -22 160 -45
65 -68 70 -306 70 l-213 0 3 68 3 67 243 3 242 2 0 80 0 80 -262 0 c-197 -1
-271 -4 -293 -14z"/>
<path d="M2637 2754 c-4 -4 -7 -225 -7 -491 l0 -483 80 0 80 0 0 110 0 110
238 0 c265 0 286 4 329 69 23 33 23 40 23 310 0 402 30 375 -415 379 -176 2
-324 0 -328 -4z m583 -374 l0 -220 -215 0 -215 0 0 213 c0 118 3 217 7 220 3
4 100 7 215 7 l208 0 0 -220z"/>
<path d="M3605 2748 c-41 -15 -53 -26 -76 -69 -17 -35 -19 -61 -19 -300 0
-252 1 -263 22 -301 43 -75 56 -78 393 -78 l295 0 0 80 0 80 -275 0 -275 0 0
70 0 70 243 0 c224 0 244 2 275 20 60 37 72 70 72 205 0 144 -13 178 -80 213
-43 21 -54 22 -295 21 -148 0 -262 -5 -280 -11z m495 -218 l0 -70 -215 0 -215
0 0 70 0 70 215 0 215 0 0 -70z"/>
<path d="M4380 2380 l0 -380 80 0 80 0 2 298 3 297 180 0 180 0 3 -72 3 -73
79 0 80 0 0 99 c0 126 -15 165 -73 191 -38 18 -68 20 -329 20 l-288 0 0 -380z"/>
</g>
</svg>
